<svg width="31" height="30" viewBox="0 0 31 30" fill="none" xmlns="http://www.w3.org/2000/svg">
<path d="M15.8915 0C7.61148 0 0.891479 6.72 0.891479 15C0.891479 23.28 7.61148 30 15.8915 30C24.1715 30 30.8915 23.28 30.8915 15C30.8915 6.72 24.1715 0 15.8915 0ZM21.3065 9.51C22.9115 9.51 24.2015 10.8 24.2015 12.405C24.2015 14.01 22.9115 15.3 21.3065 15.3C19.7015 15.3 18.4115 14.01 18.4115 12.405C18.3965 10.8 19.7015 9.51 21.3065 9.51ZM12.3065 7.14C14.2565 7.14 15.8465 8.73 15.8465 10.68C15.8465 12.63 14.2565 14.22 12.3065 14.22C10.3565 14.22 8.76648 12.63 8.76648 10.68C8.76648 8.715 10.3415 7.14 12.3065 7.14ZM12.3065 20.835V26.46C8.70648 25.335 5.85648 22.56 4.59648 19.02C6.17148 17.34 10.1015 16.485 12.3065 16.485C13.1015 16.485 14.1065 16.605 15.1565 16.815C12.6965 18.12 12.3065 19.845 12.3065 20.835ZM15.8915 27C15.4865 27 15.0965 26.985 14.7065 26.94V20.835C14.7065 18.705 19.1165 17.64 21.3065 17.64C22.9115 17.64 25.6865 18.225 27.0665 19.365C25.3115 23.82 20.9765 27 15.8915 27Z" fill="#2015A3"/>
</svg>
