<svg width="12" height="11" viewBox="0 0 12 11" fill="none" xmlns="http://www.w3.org/2000/svg">
<path d="M10.2083 1.75H8.16667V1.16667C8.1662 0.85739 8.04314 0.560912 7.82445 0.34222C7.60575 0.123528 7.30928 0.000462875 7 0H4.66667C4.35739 0.000462875 4.06091 0.123528 3.84222 0.34222C3.62353 0.560912 3.50046 0.85739 3.5 1.16667V1.75H1.45833C1.07165 1.75031 0.700901 1.90405 0.427477 2.17748C0.154054 2.4509 0.000308973 2.82165 0 3.20833V9.04167C0.000308973 9.42835 0.154054 9.7991 0.427477 10.0725C0.700901 10.3459 1.07165 10.4997 1.45833 10.5H10.2083C10.595 10.4997 10.9658 10.3459 11.2392 10.0725C11.5126 9.7991 11.6664 9.42835 11.6667 9.04167V3.20833C11.6664 2.82165 11.5126 2.4509 11.2392 2.17748C10.9658 1.90405 10.595 1.75031 10.2083 1.75ZM4.08333 1.16667C4.08333 1.01196 4.14479 0.863584 4.25419 0.754188C4.36358 0.644792 4.51196 0.583333 4.66667 0.583333H7C7.15471 0.583333 7.30308 0.644792 7.41248 0.754188C7.52187 0.863584 7.58333 1.01196 7.58333 1.16667V1.75H4.08333V1.16667ZM11.0833 9.04167C11.0833 9.27373 10.9911 9.49629 10.8271 9.66038C10.663 9.82448 10.4404 9.91667 10.2083 9.91667H1.45833C1.22627 9.91667 1.00371 9.82448 0.839615 9.66038C0.675521 9.49629 0.583333 9.27373 0.583333 9.04167V5.26575L3.99117 6.40208C4.02093 6.41176 4.05204 6.41668 4.08333 6.41667H7.58333C7.61463 6.41668 7.64574 6.41176 7.6755 6.40208L11.0833 5.26575V9.04167ZM11.0833 4.67017C11.0522 4.669 11.021 4.67294 10.9912 4.68183L7.53608 5.83333H4.13058L0.6755 4.68125C0.64562 4.67236 0.614486 4.66842 0.583333 4.66958V3.20833C0.583333 2.97627 0.675521 2.75371 0.839615 2.58961C1.00371 2.42552 1.22627 2.33333 1.45833 2.33333H10.2083C10.4404 2.33333 10.663 2.42552 10.8271 2.58961C10.9911 2.75371 11.0833 2.97627 11.0833 3.20833V4.67017Z" fill="#8A8A8A"/>
</svg>
