<svg width="12" height="15" viewBox="0 0 12 15" fill="none" xmlns="http://www.w3.org/2000/svg">
<path fill-rule="evenodd" clip-rule="evenodd" d="M2.50391 6.66667C2.50391 5.82681 2.83754 5.02136 3.4314 4.4275C4.02527 3.83363 4.83072 3.5 5.67057 3.5C6.51043 3.5 7.31588 3.83363 7.90974 4.4275C8.50361 5.02136 8.83724 5.82681 8.83724 6.66667C8.83724 7.50652 8.50361 8.31197 7.90974 8.90584C7.31588 9.4997 6.51043 9.83333 5.67057 9.83333C4.83072 9.83333 4.02527 9.4997 3.4314 8.90584C2.83754 8.31197 2.50391 7.50652 2.50391 6.66667ZM5.67057 4.5C5.09594 4.5 4.54484 4.72827 4.13851 5.1346C3.73218 5.54093 3.50391 6.09203 3.50391 6.66667C3.50391 7.2413 3.73218 7.7924 4.13851 8.19873C4.54484 8.60506 5.09594 8.83333 5.67057 8.83333C6.24521 8.83333 6.79631 8.60506 7.20264 8.19873C7.60897 7.7924 7.83724 7.2413 7.83724 6.66667C7.83724 6.09203 7.60897 5.54093 7.20264 5.1346C6.79631 4.72827 6.24521 4.5 5.67057 4.5Z" fill="#8A8A8A"/>
<path fill-rule="evenodd" clip-rule="evenodd" d="M0.0201572 5.90471C0.134108 4.52258 0.763641 3.23383 1.78377 2.29436C2.80389 1.35488 4.14 0.83337 5.52682 0.833374H5.81482C7.20164 0.83337 8.53776 1.35488 9.55788 2.29436C10.578 3.23383 11.2075 4.52258 11.3215 5.90471C11.4483 7.44423 10.9727 8.97288 9.99482 10.1687L6.79949 14.076C6.66274 14.2433 6.49055 14.378 6.29535 14.4705C6.10016 14.5631 5.88684 14.6111 5.67082 14.6111C5.45481 14.6111 5.24149 14.5631 5.0463 14.4705C4.8511 14.378 4.6789 14.2433 4.54216 14.076L1.34682 10.1687C0.368901 8.97292 -0.106719 7.44424 0.0201572 5.90471ZM5.52682 1.83337C4.39115 1.83355 3.29705 2.26073 2.4617 3.03012C1.62636 3.79952 1.11085 4.85487 1.01749 5.98671C0.911891 7.26795 1.30768 8.54016 2.12149 9.53537L5.31682 13.4434C5.35978 13.4959 5.41388 13.5383 5.47522 13.5674C5.53656 13.5965 5.6036 13.6116 5.67149 13.6116C5.73938 13.6116 5.80642 13.5965 5.86776 13.5674C5.9291 13.5383 5.9832 13.4959 6.02616 13.4434L9.22149 9.53537C10.0348 8.53997 10.4301 7.26777 10.3242 5.98671C10.2308 4.85476 9.71518 3.79931 8.8797 3.02989C8.04421 2.26048 6.94995 1.83338 5.81416 1.83337H5.52682Z" fill="#8A8A8A"/>
</svg>
