<svg width="13" height="13" viewBox="0 0 13 13" fill="none" xmlns="http://www.w3.org/2000/svg">
<path d="M3.9375 9.18751C3.82147 9.18751 3.71019 9.14142 3.62814 9.05937C3.54609 8.97732 3.5 8.86604 3.5 8.75001V3.50001C3.50004 3.42546 3.51913 3.35216 3.55545 3.28707C3.59177 3.22197 3.64413 3.16723 3.70755 3.12805C3.77097 3.08887 3.84334 3.06654 3.91782 3.06319C3.99229 3.05983 4.06638 3.07556 4.13306 3.10889L9.38306 5.73389C9.45564 5.77026 9.51666 5.82611 9.5593 5.89518C9.60195 5.96426 9.62453 6.04383 9.62453 6.12501C9.62453 6.20619 9.60195 6.28577 9.5593 6.35484C9.51666 6.42392 9.45564 6.47976 9.38306 6.51614L4.13306 9.14114C4.07235 9.17155 4.0054 9.18742 3.9375 9.18751ZM4.375 4.20789V8.04214L8.20925 6.12501L4.375 4.20789Z" fill="#8A8A8A"/>
<path d="M6.125 0.875C7.16335 0.875 8.17839 1.18291 9.04175 1.75978C9.9051 2.33666 10.578 3.1566 10.9754 4.11591C11.3727 5.07522 11.4767 6.13082 11.2741 7.14922C11.0716 8.16762 10.5715 9.10308 9.83731 9.83731C9.10309 10.5715 8.16763 11.0716 7.14923 11.2741C6.13083 11.4767 5.07523 11.3727 4.11591 10.9754C3.1566 10.578 2.33666 9.9051 1.75979 9.04174C1.18291 8.17839 0.875003 7.16335 0.875003 6.125C0.875003 4.73261 1.42813 3.39726 2.41269 2.41269C3.39726 1.42812 4.73262 0.875 6.125 0.875ZM6.125 0C4.91359 0 3.72939 0.359225 2.72213 1.03225C1.71488 1.70527 0.929827 2.66187 0.466241 3.78106C0.00265386 4.90026 -0.118642 6.13179 0.117693 7.31993C0.354027 8.50806 0.937377 9.59943 1.79397 10.456C2.65057 11.3126 3.74194 11.896 4.93007 12.1323C6.11821 12.3686 7.34974 12.2473 8.46894 11.7838C9.58814 11.3202 10.5447 10.5351 11.2178 9.52787C11.8908 8.52062 12.25 7.33641 12.25 6.125C12.25 4.50055 11.6047 2.94263 10.456 1.79397C9.30737 0.645311 7.74945 0 6.125 0Z" fill="#8A8A8A"/>
</svg>
