<svg width="29" height="24" viewBox="0 0 29 24" fill="none" xmlns="http://www.w3.org/2000/svg">
<path fill-rule="evenodd" clip-rule="evenodd" d="M17.5619 1H12.8588C10.7276 1 9.03931 1 7.7186 1.153C6.35963 1.311 5.25923 1.643 4.39074 2.391C3.52341 3.14 3.13845 4.089 2.95524 5.261C2.77783 6.401 2.77783 7.856 2.77783 9.694V15.75C2.77786 16.6434 3.14765 17.5075 3.82064 18.1867C4.49364 18.8659 5.42564 19.3157 6.44891 19.455C6.60777 20.219 6.91505 20.871 7.5296 21.402C8.22764 22.004 9.10656 22.262 10.1501 22.384C11.1555 22.5 12.4344 22.5 14.0195 22.5H17.6257C19.2107 22.5 20.4897 22.5 21.495 22.384C22.5386 22.262 23.4175 22.004 24.1156 21.402C24.8136 20.8 25.1128 20.042 25.2542 19.142C25.3887 18.275 25.3887 17.172 25.3887 15.805V10.695C25.3887 9.328 25.3887 8.225 25.2542 7.358C25.1128 6.458 24.8136 5.7 24.1156 5.098C23.4998 4.568 22.7438 4.303 21.858 4.166C21.6964 3.28351 21.1749 2.47974 20.3873 1.89934C19.5997 1.31894 18.5978 1.00002 17.5619 1ZM20.0317 4.021C19.8554 3.577 19.5225 3.19166 19.0796 2.91893C18.6367 2.64619 18.1061 2.49971 17.5619 2.5H12.9237C10.7125 2.5 9.14251 2.502 7.94935 2.64C6.78402 2.775 6.11149 3.029 5.62101 3.452C5.13052 3.875 4.836 4.455 4.67947 5.461C4.51945 6.489 4.51713 7.843 4.51713 9.75V15.75C4.5168 16.2193 4.68664 16.677 5.00289 17.0589C5.31913 17.4408 5.76595 17.7279 6.28078 17.88C6.25643 17.27 6.25643 16.58 6.25643 15.805V10.695C6.25643 9.328 6.25643 8.225 6.3921 7.358C6.53124 6.458 6.83272 5.7 7.5296 5.098C8.22764 4.496 9.10656 4.238 10.1501 4.117C11.1555 4 12.4344 4 14.0195 4H17.6257C18.5243 4 19.3244 4 20.0317 4.021ZM8.7587 6.16C9.07989 5.883 9.52979 5.703 10.3821 5.604C11.2563 5.503 12.4182 5.501 14.0821 5.501H17.5607C19.2246 5.501 20.3853 5.503 21.2619 5.604C22.113 5.703 22.5629 5.884 22.8841 6.16C23.2053 6.437 23.414 6.825 23.5288 7.56C23.646 8.314 23.6483 9.316 23.6483 10.751V15.751C23.6483 17.186 23.646 18.187 23.5288 18.943C23.414 19.677 23.2042 20.065 22.8841 20.342C22.5629 20.619 22.113 20.799 21.2608 20.898C20.3853 20.999 19.2246 21.001 17.5607 21.001H14.0821C12.4182 21.001 11.2563 20.999 10.3809 20.898C9.52979 20.799 9.07989 20.618 8.7587 20.342C8.43751 20.065 8.2288 19.677 8.114 18.942C7.99689 18.187 7.99457 17.186 7.99457 15.751V10.751C7.99457 9.316 7.99689 8.314 8.114 7.559C8.2288 6.825 8.43867 6.437 8.7587 6.16Z" fill="black" fill-opacity="0.5"/>
</svg>
