<svg width="18" height="19" viewBox="0 0 18 19" fill="none" xmlns="http://www.w3.org/2000/svg">
<path d="M14.25 1.75H3.75C3.15326 1.75 2.58097 1.98705 2.15901 2.40901C1.73705 2.83097 1.5 3.40326 1.5 4V4.8775C1.49989 5.18721 1.56372 5.4936 1.6875 5.7775V5.8225C1.79346 6.06323 1.94354 6.282 2.13 6.4675L6.75 11.0575V16C6.74974 16.1275 6.78198 16.2529 6.84365 16.3644C6.90533 16.476 6.99442 16.5699 7.1025 16.6375C7.22186 16.7115 7.35958 16.7505 7.5 16.75C7.61741 16.7493 7.73301 16.721 7.8375 16.6675L10.8375 15.1675C10.9612 15.1052 11.0652 15.0098 11.138 14.892C11.2108 14.7742 11.2496 14.6385 11.25 14.5V11.0575L15.84 6.4675C16.0265 6.282 16.1765 6.06323 16.2825 5.8225V5.7775C16.4166 5.49582 16.4907 5.18933 16.5 4.8775V4C16.5 3.40326 16.2629 2.83097 15.841 2.40901C15.419 1.98705 14.8467 1.75 14.25 1.75ZM9.9675 10.2175C9.89799 10.2876 9.843 10.3707 9.80567 10.4621C9.76835 10.5534 9.74943 10.6513 9.75 10.75V14.035L8.25 14.785V10.75C8.25057 10.6513 8.23165 10.5534 8.19433 10.4621C8.157 10.3707 8.10201 10.2876 8.0325 10.2175L4.0575 6.25H13.9425L9.9675 10.2175ZM15 4.75H3V4C3 3.80109 3.07902 3.61032 3.21967 3.46967C3.36032 3.32902 3.55109 3.25 3.75 3.25H14.25C14.4489 3.25 14.6397 3.32902 14.7803 3.46967C14.921 3.61032 15 3.80109 15 4V4.75Z" fill="black"/>
</svg>
