<svg width="44" height="44" viewBox="0 0 44 44" fill="none" xmlns="http://www.w3.org/2000/svg">
<path fill-rule="evenodd" clip-rule="evenodd" d="M6.28571 0C4.61864 0 3.01984 0.662243 1.84104 1.84104C0.662243 3.01984 0 4.61864 0 6.28571V37.7143C0 39.3814 0.662243 40.9802 1.84104 42.159C3.01984 43.3378 4.61864 44 6.28571 44H37.7143C39.3814 44 40.9802 43.3378 42.159 42.159C43.3378 40.9802 44 39.3814 44 37.7143V6.28571C44 4.61864 43.3378 3.01984 42.159 1.84104C40.9802 0.662243 39.3814 0 37.7143 0H6.28571ZM9.74914 13.5049C10.7452 13.5049 11.7005 13.1092 12.4048 12.4048C13.1092 11.7005 13.5049 10.7452 13.5049 9.74914C13.5049 8.75307 13.1092 7.79778 12.4048 7.09345C11.7005 6.38912 10.7452 5.99343 9.74914 5.99343C8.75307 5.99343 7.79778 6.38912 7.09345 7.09345C6.38912 7.79778 5.99343 8.75307 5.99343 9.74914C5.99343 10.7452 6.38912 11.7005 7.09345 12.4048C7.79778 13.1092 8.75307 13.5049 9.74914 13.5049ZM12.892 37.1266V16.4497H6.60629V37.1266H12.892ZM17.0657 16.4497H23.3514V19.2186C24.2786 17.7666 26.3151 15.8117 30.1023 15.8117C34.6217 15.8117 37.0763 18.8069 37.0763 24.5049C37.0763 24.7783 37.1014 26.026 37.1014 26.026V37.1234H30.8157V26.0291C30.8157 24.5049 30.4951 21.5097 27.1071 21.5097C23.716 21.5097 23.43 25.2749 23.3514 27.7389V37.1234H17.0657V16.4497Z" fill="black"/>
</svg>
