<svg width="27" height="26" viewBox="0 0 27 26" fill="none" xmlns="http://www.w3.org/2000/svg">
<path fill-rule="evenodd" clip-rule="evenodd" d="M8.354 10.8334C8.354 9.4686 8.89615 8.15974 9.86118 7.19471C10.8262 6.22968 12.1351 5.68753 13.4998 5.68753C14.8646 5.68753 16.1735 6.22968 17.1385 7.19471C18.1035 8.15974 18.6457 9.4686 18.6457 10.8334C18.6457 12.1981 18.1035 13.507 17.1385 14.472C16.1735 15.437 14.8646 15.9792 13.4998 15.9792C12.1351 15.9792 10.8262 15.437 9.86118 14.472C8.89615 13.507 8.354 12.1981 8.354 10.8334ZM13.4998 7.31253C12.5661 7.31253 11.6705 7.68347 11.0102 8.34376C10.3499 9.00404 9.979 9.89958 9.979 10.8334C9.979 11.7671 10.3499 12.6627 11.0102 13.323C11.6705 13.9833 12.5661 14.3542 13.4998 14.3542C14.4336 14.3542 15.3292 13.9833 15.9894 13.323C16.6497 12.6627 17.0207 11.7671 17.0207 10.8334C17.0207 9.89958 16.6497 9.00404 15.9894 8.34376C15.3292 7.68347 14.4336 7.31253 13.4998 7.31253Z" fill="#434242"/>
<path fill-rule="evenodd" clip-rule="evenodd" d="M4.31742 9.5951C4.50259 7.34914 5.52559 5.25493 7.18329 3.72828C8.84099 2.20163 11.0122 1.35418 13.2658 1.35419H13.7338C15.9873 1.35418 18.1585 2.20163 19.8162 3.72828C21.4739 5.25493 22.4969 7.34914 22.6821 9.5951C22.8881 12.0968 22.1153 14.5809 20.5263 16.5241L15.3338 22.8735C15.1116 23.1453 14.8318 23.3642 14.5146 23.5146C14.1974 23.6649 13.8508 23.7429 13.4998 23.7429C13.1487 23.7429 12.8021 23.6649 12.4849 23.5146C12.1677 23.3642 11.8879 23.1453 11.6657 22.8735L6.47326 16.5241C4.88413 14.5809 4.11125 12.0968 4.31742 9.5951ZM13.2658 2.97919C11.4203 2.97947 9.64237 3.67363 8.28494 4.9239C6.92751 6.17417 6.0898 7.88912 5.93809 9.72835C5.76649 11.8104 6.40965 13.8777 7.73209 15.4949L12.9245 21.8454C12.9943 21.9309 13.0822 21.9997 13.1819 22.047C13.2816 22.0943 13.3905 22.1188 13.5008 22.1188C13.6112 22.1188 13.7201 22.0943 13.8198 22.047C13.9195 21.9997 14.0074 21.9309 14.0772 21.8454L19.2696 15.4949C20.5913 13.8774 21.2336 11.8101 21.0614 9.72835C20.9097 7.88894 20.0718 6.17383 18.7142 4.92353C17.3565 3.67324 15.5783 2.97919 13.7327 2.97919H13.2658Z" fill="#434242"/>
</svg>
